<?xml version="1.0" encoding="UTF-8" standalone="no"?>
<!DOCTYPE svg PUBLIC "-//W3C//DTD SVG 1.1//EN"
 "http://www.w3.org/Graphics/SVG/1.1/DTD/svg11.dtd">
<!-- Generated by graphviz version 2.26.3 (20100126.1600)
 -->
<!-- Title: controllers_diagram Pages: 1 -->
<svg width="1037pt" height="1114pt"
 viewBox="0.00 0.00 1037.00 1114.00" xmlns="http://www.w3.org/2000/svg" xmlns:xlink="http://www.w3.org/1999/xlink">
<g id="graph1" class="graph" transform="scale(1 1) rotate(0) translate(4 1110)">
<title>controllers_diagram</title>
<polygon fill="white" stroke="white" points="-4,5 -4,-1110 1034,-1110 1034,5 -4,5"/>
<!-- _diagram_info -->
<g id="node1" class="node"><title>_diagram_info</title>
<text text-anchor="start" x="384" y="-978.3" font-family="Times Roman,serif" font-size="13.00">Controllers diagram</text>
<text text-anchor="start" x="384" y="-961.3" font-family="Times Roman,serif" font-size="13.00">Date: Jan 14 2013 &#45; 21:21</text>
<text text-anchor="start" x="384" y="-944.3" font-family="Times Roman,serif" font-size="13.00">Migration version: 20130108133713</text>
<text text-anchor="start" x="384" y="-927.3" font-family="Times Roman,serif" font-size="13.00">Generated by RailRoady 1.1.0</text>
<text text-anchor="start" x="384" y="-910.3" font-family="Times Roman,serif" font-size="13.00">http://railroady.prestonlee.com</text>
</g>
<!-- HomeController -->
<g id="node2" class="node"><title>HomeController</title>
<polyline fill="none" stroke="black" points="588,-601.513 689,-601.513 "/>
<path fill="none" stroke="black" d="M689,-601.513C695,-601.513 701,-607.513 701,-613.513"/>
<polyline fill="none" stroke="black" points="701,-613.513 701,-691.513 "/>
<path fill="none" stroke="black" d="M701,-691.513C701,-697.513 695,-703.513 689,-703.513"/>
<polyline fill="none" stroke="black" points="689,-703.513 588,-703.513 "/>
<path fill="none" stroke="black" d="M588,-703.513C582,-703.513 576,-697.513 576,-691.513"/>
<polyline fill="none" stroke="black" points="576,-691.513 576,-613.513 "/>
<path fill="none" stroke="black" d="M576,-613.513C576,-607.513 582,-601.513 588,-601.513"/>
<text text-anchor="middle" x="638.5" y="-686.913" font-family="Times Roman,serif" font-size="14.00">HomeController</text>
<polyline fill="none" stroke="black" points="576,-677.513 701,-677.513 "/>
<text text-anchor="start" x="584" y="-660.913" font-family="Times Roman,serif" font-size="14.00">index</text>
<polyline fill="none" stroke="black" points="576,-651.513 701,-651.513 "/>
<polyline fill="none" stroke="black" points="576,-627.513 701,-627.513 "/>
<text text-anchor="start" x="584" y="-610.913" font-family="Times Roman,serif" font-size="14.00">_layout</text>
</g>
<!-- ApplicationController -->
<g id="node3" class="node"><title>ApplicationController</title>
<polyline fill="none" stroke="black" points="721.986,-601.5 935.986,-601.5 "/>
<path fill="none" stroke="black" d="M935.986,-601.5C941.986,-601.5 947.986,-607.5 947.986,-613.5"/>
<polyline fill="none" stroke="black" points="947.986,-613.5 947.986,-691.5 "/>
<path fill="none" stroke="black" d="M947.986,-691.5C947.986,-697.5 941.986,-703.5 935.986,-703.5"/>
<polyline fill="none" stroke="black" points="935.986,-703.5 721.986,-703.5 "/>
<path fill="none" stroke="black" d="M721.986,-703.5C715.986,-703.5 709.986,-697.5 709.986,-691.5"/>
<polyline fill="none" stroke="black" points="709.986,-691.5 709.986,-613.5 "/>
<path fill="none" stroke="black" d="M709.986,-613.5C709.986,-607.5 715.986,-601.5 721.986,-601.5"/>
<text text-anchor="middle" x="828.986" y="-686.9" font-family="Times Roman,serif" font-size="14.00">ApplicationController</text>
<polyline fill="none" stroke="black" points="709.986,-677.5 947.986,-677.5 "/>
<text text-anchor="start" x="717.986" y="-660.9" font-family="Times Roman,serif" font-size="14.00">_one_time_conditions_valid_78?</text>
<polyline fill="none" stroke="black" points="709.986,-651.5 947.986,-651.5 "/>
<polyline fill="none" stroke="black" points="709.986,-627.5 947.986,-627.5 "/>
<text text-anchor="start" x="717.986" y="-610.9" font-family="Times Roman,serif" font-size="14.00">_layout</text>
</g>
<!-- ApplicationController&#45;&gt;HomeController -->
<g id="edge2" class="edge"><title>ApplicationController&#45;&gt;HomeController</title>
<path fill="none" stroke="black" d="M709.972,-652.508C706.964,-652.508 703.99,-652.508 701.062,-652.508"/>
</g>
<!-- Admin::AbusesController -->
<g id="node4" class="node"><title>Admin::AbusesController</title>
<polyline fill="none" stroke="black" points="38,-101.5 252,-101.5 "/>
<path fill="none" stroke="black" d="M252,-101.5C258,-101.5 264,-107.5 264,-113.5"/>
<polyline fill="none" stroke="black" points="264,-113.5 264,-281.5 "/>
<path fill="none" stroke="black" d="M264,-281.5C264,-287.5 258,-293.5 252,-293.5"/>
<polyline fill="none" stroke="black" points="252,-293.5 38,-293.5 "/>
<path fill="none" stroke="black" d="M38,-293.5C32,-293.5 26,-287.5 26,-281.5"/>
<polyline fill="none" stroke="black" points="26,-281.5 26,-113.5 "/>
<path fill="none" stroke="black" d="M26,-113.5C26,-107.5 32,-101.5 38,-101.5"/>
<text text-anchor="middle" x="145" y="-276.9" font-family="Times Roman,serif" font-size="14.00">Admin::AbusesController</text>
<polyline fill="none" stroke="black" points="26,-267.5 264,-267.5 "/>
<text text-anchor="start" x="34" y="-250.9" font-family="Times Roman,serif" font-size="14.00">_one_time_conditions_valid_82?</text>
<text text-anchor="start" x="34" y="-232.9" font-family="Times Roman,serif" font-size="14.00">_one_time_conditions_valid_84?</text>
<text text-anchor="start" x="34" y="-214.9" font-family="Times Roman,serif" font-size="14.00">_one_time_conditions_valid_86?</text>
<text text-anchor="start" x="34" y="-196.9" font-family="Times Roman,serif" font-size="14.00">destroy</text>
<text text-anchor="start" x="34" y="-178.9" font-family="Times Roman,serif" font-size="14.00">index</text>
<polyline fill="none" stroke="black" points="26,-169.5 264,-169.5 "/>
<polyline fill="none" stroke="black" points="26,-145.5 264,-145.5 "/>
<text text-anchor="start" x="34" y="-128.9" font-family="Times Roman,serif" font-size="14.00">_layout</text>
<text text-anchor="start" x="34" y="-110.9" font-family="Times Roman,serif" font-size="14.00">find_abuse</text>
</g>
<!-- Admin::AdminController -->
<g id="node5" class="node"><title>Admin::AdminController</title>
<polyline fill="none" stroke="black" points="313,-651.5 527,-651.5 "/>
<path fill="none" stroke="black" d="M527,-651.5C533,-651.5 539,-657.5 539,-663.5"/>
<polyline fill="none" stroke="black" points="539,-663.5 539,-849.5 "/>
<path fill="none" stroke="black" d="M539,-849.5C539,-855.5 533,-861.5 527,-861.5"/>
<polyline fill="none" stroke="black" points="527,-861.5 313,-861.5 "/>
<path fill="none" stroke="black" d="M313,-861.5C307,-861.5 301,-855.5 301,-849.5"/>
<polyline fill="none" stroke="black" points="301,-849.5 301,-663.5 "/>
<path fill="none" stroke="black" d="M301,-663.5C301,-657.5 307,-651.5 313,-651.5"/>
<text text-anchor="middle" x="420" y="-844.9" font-family="Times Roman,serif" font-size="14.00">Admin::AdminController</text>
<polyline fill="none" stroke="black" points="301,-835.5 539,-835.5 "/>
<text text-anchor="start" x="309" y="-818.9" font-family="Times Roman,serif" font-size="14.00">_one_time_conditions_valid_80?</text>
<text text-anchor="start" x="309" y="-800.9" font-family="Times Roman,serif" font-size="14.00">require_admin</text>
<polyline fill="none" stroke="black" points="301,-791.5 539,-791.5 "/>
<polyline fill="none" stroke="black" points="301,-767.5 539,-767.5 "/>
<text text-anchor="start" x="309" y="-750.9" font-family="Times Roman,serif" font-size="14.00">_layout</text>
<text text-anchor="start" x="309" y="-732.9" font-family="Times Roman,serif" font-size="14.00">current_user</text>
<text text-anchor="start" x="309" y="-714.9" font-family="Times Roman,serif" font-size="14.00">current_user_session</text>
<text text-anchor="start" x="309" y="-696.9" font-family="Times Roman,serif" font-size="14.00">set_cache_buster</text>
<text text-anchor="start" x="309" y="-678.9" font-family="Times Roman,serif" font-size="14.00">sort_column</text>
<text text-anchor="start" x="309" y="-660.9" font-family="Times Roman,serif" font-size="14.00">sort_direction</text>
</g>
<!-- Admin::OpinionsController -->
<g id="node6" class="node"><title>Admin::OpinionsController</title>
<polyline fill="none" stroke="black" points="313,-101.5 527,-101.5 "/>
<path fill="none" stroke="black" d="M527,-101.5C533,-101.5 539,-107.5 539,-113.5"/>
<polyline fill="none" stroke="black" points="539,-113.5 539,-281.5 "/>
<path fill="none" stroke="black" d="M539,-281.5C539,-287.5 533,-293.5 527,-293.5"/>
<polyline fill="none" stroke="black" points="527,-293.5 313,-293.5 "/>
<path fill="none" stroke="black" d="M313,-293.5C307,-293.5 301,-287.5 301,-281.5"/>
<polyline fill="none" stroke="black" points="301,-281.5 301,-113.5 "/>
<path fill="none" stroke="black" d="M301,-113.5C301,-107.5 307,-101.5 313,-101.5"/>
<text text-anchor="middle" x="420" y="-276.9" font-family="Times Roman,serif" font-size="14.00">Admin::OpinionsController</text>
<polyline fill="none" stroke="black" points="301,-267.5 539,-267.5 "/>
<text text-anchor="start" x="309" y="-250.9" font-family="Times Roman,serif" font-size="14.00">_one_time_conditions_valid_94?</text>
<text text-anchor="start" x="309" y="-232.9" font-family="Times Roman,serif" font-size="14.00">_one_time_conditions_valid_96?</text>
<text text-anchor="start" x="309" y="-214.9" font-family="Times Roman,serif" font-size="14.00">_one_time_conditions_valid_98?</text>
<text text-anchor="start" x="309" y="-196.9" font-family="Times Roman,serif" font-size="14.00">destroy</text>
<text text-anchor="start" x="309" y="-178.9" font-family="Times Roman,serif" font-size="14.00">index</text>
<polyline fill="none" stroke="black" points="301,-169.5 539,-169.5 "/>
<polyline fill="none" stroke="black" points="301,-145.5 539,-145.5 "/>
<text text-anchor="start" x="309" y="-128.9" font-family="Times Roman,serif" font-size="14.00">_layout</text>
<text text-anchor="start" x="309" y="-110.9" font-family="Times Roman,serif" font-size="14.00">find_opinion</text>
</g>
<!-- Admin::UserSessionsController -->
<g id="node7" class="node"><title>Admin::UserSessionsController</title>
<polyline fill="none" stroke="black" points="38,-701.5 242,-701.5 "/>
<path fill="none" stroke="black" d="M242,-701.5C248,-701.5 254,-707.5 254,-713.5"/>
<polyline fill="none" stroke="black" points="254,-713.5 254,-827.5 "/>
<path fill="none" stroke="black" d="M254,-827.5C254,-833.5 248,-839.5 242,-839.5"/>
<polyline fill="none" stroke="black" points="242,-839.5 38,-839.5 "/>
<path fill="none" stroke="black" d="M38,-839.5C32,-839.5 26,-833.5 26,-827.5"/>
<polyline fill="none" stroke="black" points="26,-827.5 26,-713.5 "/>
<path fill="none" stroke="black" d="M26,-713.5C26,-707.5 32,-701.5 38,-701.5"/>
<text text-anchor="middle" x="140" y="-822.9" font-family="Times Roman,serif" font-size="14.00">Admin::UserSessionsController</text>
<polyline fill="none" stroke="black" points="26,-813.5 254,-813.5 "/>
<text text-anchor="start" x="34" y="-796.9" font-family="Times Roman,serif" font-size="14.00">create</text>
<text text-anchor="start" x="34" y="-778.9" font-family="Times Roman,serif" font-size="14.00">destroy</text>
<text text-anchor="start" x="34" y="-760.9" font-family="Times Roman,serif" font-size="14.00">new</text>
<polyline fill="none" stroke="black" points="26,-751.5 254,-751.5 "/>
<polyline fill="none" stroke="black" points="26,-727.5 254,-727.5 "/>
<text text-anchor="start" x="34" y="-710.9" font-family="Times Roman,serif" font-size="14.00">_layout</text>
</g>
<!-- Admin::ReportsController -->
<g id="node8" class="node"><title>Admin::ReportsController</title>
<polyline fill="none" stroke="black" points="688,-751.5 911,-751.5 "/>
<path fill="none" stroke="black" d="M911,-751.5C917,-751.5 923,-757.5 923,-763.5"/>
<polyline fill="none" stroke="black" points="923,-763.5 923,-967.5 "/>
<path fill="none" stroke="black" d="M923,-967.5C923,-973.5 917,-979.5 911,-979.5"/>
<polyline fill="none" stroke="black" points="911,-979.5 688,-979.5 "/>
<path fill="none" stroke="black" d="M688,-979.5C682,-979.5 676,-973.5 676,-967.5"/>
<polyline fill="none" stroke="black" points="676,-967.5 676,-763.5 "/>
<path fill="none" stroke="black" d="M676,-763.5C676,-757.5 682,-751.5 688,-751.5"/>
<text text-anchor="middle" x="799.5" y="-962.9" font-family="Times Roman,serif" font-size="14.00">Admin::ReportsController</text>
<polyline fill="none" stroke="black" points="676,-953.5 923,-953.5 "/>
<text text-anchor="start" x="684" y="-936.9" font-family="Times Roman,serif" font-size="14.00">_one_time_conditions_valid_158?</text>
<text text-anchor="start" x="684" y="-918.9" font-family="Times Roman,serif" font-size="14.00">_one_time_conditions_valid_160?</text>
<text text-anchor="start" x="684" y="-900.9" font-family="Times Roman,serif" font-size="14.00">_one_time_conditions_valid_162?</text>
<text text-anchor="start" x="684" y="-882.9" font-family="Times Roman,serif" font-size="14.00">destroy</text>
<text text-anchor="start" x="684" y="-864.9" font-family="Times Roman,serif" font-size="14.00">edit</text>
<text text-anchor="start" x="684" y="-846.9" font-family="Times Roman,serif" font-size="14.00">find_report</text>
<text text-anchor="start" x="684" y="-828.9" font-family="Times Roman,serif" font-size="14.00">index</text>
<text text-anchor="start" x="684" y="-810.9" font-family="Times Roman,serif" font-size="14.00">update</text>
<polyline fill="none" stroke="black" points="676,-801.5 923,-801.5 "/>
<polyline fill="none" stroke="black" points="676,-777.5 923,-777.5 "/>
<text text-anchor="start" x="684" y="-760.9" font-family="Times Roman,serif" font-size="14.00">_layout</text>
</g>
<!-- Admin::CategoriesController -->
<g id="node9" class="node"><title>Admin::CategoriesController</title>
<polyline fill="none" stroke="black" points="13,-876.5 236,-876.5 "/>
<path fill="none" stroke="black" d="M236,-876.5C242,-876.5 248,-882.5 248,-888.5"/>
<polyline fill="none" stroke="black" points="248,-888.5 248,-1092.5 "/>
<path fill="none" stroke="black" d="M248,-1092.5C248,-1098.5 242,-1104.5 236,-1104.5"/>
<polyline fill="none" stroke="black" points="236,-1104.5 13,-1104.5 "/>
<path fill="none" stroke="black" d="M13,-1104.5C7,-1104.5 1,-1098.5 1,-1092.5"/>
<polyline fill="none" stroke="black" points="1,-1092.5 1,-888.5 "/>
<path fill="none" stroke="black" d="M1,-888.5C1,-882.5 7,-876.5 13,-876.5"/>
<text text-anchor="middle" x="124.5" y="-1087.9" font-family="Times Roman,serif" font-size="14.00">Admin::CategoriesController</text>
<polyline fill="none" stroke="black" points="1,-1078.5 248,-1078.5 "/>
<text text-anchor="start" x="9" y="-1061.9" font-family="Times Roman,serif" font-size="14.00">_one_time_conditions_valid_180?</text>
<text text-anchor="start" x="9" y="-1043.9" font-family="Times Roman,serif" font-size="14.00">_one_time_conditions_valid_182?</text>
<text text-anchor="start" x="9" y="-1025.9" font-family="Times Roman,serif" font-size="14.00">_one_time_conditions_valid_184?</text>
<text text-anchor="start" x="9" y="-1007.9" font-family="Times Roman,serif" font-size="14.00">destroy</text>
<text text-anchor="start" x="9" y="-989.9" font-family="Times Roman,serif" font-size="14.00">edit</text>
<text text-anchor="start" x="9" y="-971.9" font-family="Times Roman,serif" font-size="14.00">index</text>
<text text-anchor="start" x="9" y="-953.9" font-family="Times Roman,serif" font-size="14.00">update</text>
<polyline fill="none" stroke="black" points="1,-944.5 248,-944.5 "/>
<polyline fill="none" stroke="black" points="1,-920.5 248,-920.5 "/>
<text text-anchor="start" x="9" y="-903.9" font-family="Times Roman,serif" font-size="14.00">_layout</text>
<text text-anchor="start" x="9" y="-885.9" font-family="Times Roman,serif" font-size="14.00">find_category</text>
</g>
<!-- Api::MapsController -->
<g id="node10" class="node"><title>Api::MapsController</title>
<polyline fill="none" stroke="black" points="888,-1.5 1016,-1.5 "/>
<path fill="none" stroke="black" d="M1016,-1.5C1022,-1.5 1028,-7.5 1028,-13.5"/>
<polyline fill="none" stroke="black" points="1028,-13.5 1028,-91.5 "/>
<path fill="none" stroke="black" d="M1028,-91.5C1028,-97.5 1022,-103.5 1016,-103.5"/>
<polyline fill="none" stroke="black" points="1016,-103.5 888,-103.5 "/>
<path fill="none" stroke="black" d="M888,-103.5C882,-103.5 876,-97.5 876,-91.5"/>
<polyline fill="none" stroke="black" points="876,-91.5 876,-13.5 "/>
<path fill="none" stroke="black" d="M876,-13.5C876,-7.5 882,-1.5 888,-1.5"/>
<text text-anchor="middle" x="952" y="-86.9" font-family="Times Roman,serif" font-size="14.00">Api::MapsController</text>
<polyline fill="none" stroke="black" points="876,-77.5 1028,-77.5 "/>
<text text-anchor="start" x="884" y="-60.9" font-family="Times Roman,serif" font-size="14.00">border</text>
<polyline fill="none" stroke="black" points="876,-51.5 1028,-51.5 "/>
<polyline fill="none" stroke="black" points="876,-27.5 1028,-27.5 "/>
<text text-anchor="start" x="884" y="-10.9" font-family="Times Roman,serif" font-size="14.00">_layout</text>
</g>
<!-- Api::AbusesController -->
<g id="node11" class="node"><title>Api::AbusesController</title>
<polyline fill="none" stroke="black" points="588,-51.5 811,-51.5 "/>
<path fill="none" stroke="black" d="M811,-51.5C817,-51.5 823,-57.5 823,-63.5"/>
<polyline fill="none" stroke="black" points="823,-63.5 823,-231.5 "/>
<path fill="none" stroke="black" d="M823,-231.5C823,-237.5 817,-243.5 811,-243.5"/>
<polyline fill="none" stroke="black" points="811,-243.5 588,-243.5 "/>
<path fill="none" stroke="black" d="M588,-243.5C582,-243.5 576,-237.5 576,-231.5"/>
<polyline fill="none" stroke="black" points="576,-231.5 576,-63.5 "/>
<path fill="none" stroke="black" d="M576,-63.5C576,-57.5 582,-51.5 588,-51.5"/>
<text text-anchor="middle" x="699.5" y="-226.9" font-family="Times Roman,serif" font-size="14.00">Api::AbusesController</text>
<polyline fill="none" stroke="black" points="576,-217.5 823,-217.5 "/>
<text text-anchor="start" x="584" y="-200.9" font-family="Times Roman,serif" font-size="14.00">_one_time_conditions_valid_188?</text>
<text text-anchor="start" x="584" y="-182.9" font-family="Times Roman,serif" font-size="14.00">content</text>
<text text-anchor="start" x="584" y="-164.9" font-family="Times Roman,serif" font-size="14.00">duplicate</text>
<text text-anchor="start" x="584" y="-146.9" font-family="Times Roman,serif" font-size="14.00">solved</text>
<text text-anchor="start" x="584" y="-128.9" font-family="Times Roman,serif" font-size="14.00">spam</text>
<polyline fill="none" stroke="black" points="576,-119.5 823,-119.5 "/>
<polyline fill="none" stroke="black" points="576,-95.5 823,-95.5 "/>
<text text-anchor="start" x="584" y="-78.9" font-family="Times Roman,serif" font-size="14.00">_layout</text>
<text text-anchor="start" x="584" y="-60.9" font-family="Times Roman,serif" font-size="14.00">find_report_by_id</text>
</g>
<!-- Api::OpinionsController -->
<g id="node12" class="node"><title>Api::OpinionsController</title>
<polyline fill="none" stroke="black" points="288,-351.5 511,-351.5 "/>
<path fill="none" stroke="black" d="M511,-351.5C517,-351.5 523,-357.5 523,-363.5"/>
<polyline fill="none" stroke="black" points="523,-363.5 523,-585.5 "/>
<path fill="none" stroke="black" d="M523,-585.5C523,-591.5 517,-597.5 511,-597.5"/>
<polyline fill="none" stroke="black" points="511,-597.5 288,-597.5 "/>
<path fill="none" stroke="black" d="M288,-597.5C282,-597.5 276,-591.5 276,-585.5"/>
<polyline fill="none" stroke="black" points="276,-585.5 276,-363.5 "/>
<path fill="none" stroke="black" d="M276,-363.5C276,-357.5 282,-351.5 288,-351.5"/>
<text text-anchor="middle" x="399.5" y="-580.9" font-family="Times Roman,serif" font-size="14.00">Api::OpinionsController</text>
<polyline fill="none" stroke="black" points="276,-571.5 523,-571.5 "/>
<text text-anchor="start" x="284" y="-554.9" font-family="Times Roman,serif" font-size="14.00">_one_time_conditions_valid_190?</text>
<text text-anchor="start" x="284" y="-536.9" font-family="Times Roman,serif" font-size="14.00">_one_time_conditions_valid_194?</text>
<text text-anchor="start" x="284" y="-518.9" font-family="Times Roman,serif" font-size="14.00">add</text>
<text text-anchor="start" x="284" y="-500.9" font-family="Times Roman,serif" font-size="14.00">all</text>
<text text-anchor="start" x="284" y="-482.9" font-family="Times Roman,serif" font-size="14.00">can_vote</text>
<text text-anchor="start" x="284" y="-464.9" font-family="Times Roman,serif" font-size="14.00">rate_down</text>
<text text-anchor="start" x="284" y="-446.9" font-family="Times Roman,serif" font-size="14.00">rate_up</text>
<text text-anchor="start" x="284" y="-428.9" font-family="Times Roman,serif" font-size="14.00">rating</text>
<polyline fill="none" stroke="black" points="276,-419.5 523,-419.5 "/>
<polyline fill="none" stroke="black" points="276,-395.5 523,-395.5 "/>
<text text-anchor="start" x="284" y="-378.9" font-family="Times Roman,serif" font-size="14.00">_layout</text>
<text text-anchor="start" x="284" y="-360.9" font-family="Times Roman,serif" font-size="14.00">find_opinion_by_id</text>
</g>
<!-- Api::ReportsController -->
<g id="node13" class="node"><title>Api::ReportsController</title>
<polyline fill="none" stroke="black" points="588,-301.5 811,-301.5 "/>
<path fill="none" stroke="black" d="M811,-301.5C817,-301.5 823,-307.5 823,-313.5"/>
<polyline fill="none" stroke="black" points="823,-313.5 823,-535.5 "/>
<path fill="none" stroke="black" d="M823,-535.5C823,-541.5 817,-547.5 811,-547.5"/>
<polyline fill="none" stroke="black" points="811,-547.5 588,-547.5 "/>
<path fill="none" stroke="black" d="M588,-547.5C582,-547.5 576,-541.5 576,-535.5"/>
<polyline fill="none" stroke="black" points="576,-535.5 576,-313.5 "/>
<path fill="none" stroke="black" d="M576,-313.5C576,-307.5 582,-301.5 588,-301.5"/>
<text text-anchor="middle" x="699.5" y="-530.9" font-family="Times Roman,serif" font-size="14.00">Api::ReportsController</text>
<polyline fill="none" stroke="black" points="576,-521.5 823,-521.5 "/>
<text text-anchor="start" x="584" y="-504.9" font-family="Times Roman,serif" font-size="14.00">_one_time_conditions_valid_198?</text>
<text text-anchor="start" x="584" y="-486.9" font-family="Times Roman,serif" font-size="14.00">_one_time_conditions_valid_202?</text>
<text text-anchor="start" x="584" y="-468.9" font-family="Times Roman,serif" font-size="14.00">all</text>
<text text-anchor="start" x="584" y="-450.9" font-family="Times Roman,serif" font-size="14.00">can_vote</text>
<text text-anchor="start" x="584" y="-432.9" font-family="Times Roman,serif" font-size="14.00">rate_down</text>
<text text-anchor="start" x="584" y="-414.9" font-family="Times Roman,serif" font-size="14.00">rate_up</text>
<text text-anchor="start" x="584" y="-396.9" font-family="Times Roman,serif" font-size="14.00">rating</text>
<text text-anchor="start" x="584" y="-378.9" font-family="Times Roman,serif" font-size="14.00">send_report</text>
<polyline fill="none" stroke="black" points="576,-369.5 823,-369.5 "/>
<polyline fill="none" stroke="black" points="576,-345.5 823,-345.5 "/>
<text text-anchor="start" x="584" y="-328.9" font-family="Times Roman,serif" font-size="14.00">_layout</text>
<text text-anchor="start" x="584" y="-310.9" font-family="Times Roman,serif" font-size="14.00">find_report</text>
</g>
<!-- Api::ApiController -->
<g id="node14" class="node"><title>Api::ApiController</title>
<polyline fill="none" stroke="black" points="63,-451.5 206,-451.5 "/>
<path fill="none" stroke="black" d="M206,-451.5C212,-451.5 218,-457.5 218,-463.5"/>
<polyline fill="none" stroke="black" points="218,-463.5 218,-631.5 "/>
<path fill="none" stroke="black" d="M218,-631.5C218,-637.5 212,-643.5 206,-643.5"/>
<polyline fill="none" stroke="black" points="206,-643.5 63,-643.5 "/>
<path fill="none" stroke="black" d="M63,-643.5C57,-643.5 51,-637.5 51,-631.5"/>
<polyline fill="none" stroke="black" points="51,-631.5 51,-463.5 "/>
<path fill="none" stroke="black" d="M51,-463.5C51,-457.5 57,-451.5 63,-451.5"/>
<text text-anchor="middle" x="134.5" y="-626.9" font-family="Times Roman,serif" font-size="14.00">Api::ApiController</text>
<polyline fill="none" stroke="black" points="51,-617.5 218,-617.5 "/>
<text text-anchor="start" x="59" y="-600.9" font-family="Times Roman,serif" font-size="14.00">cookie_enabled?</text>
<text text-anchor="start" x="59" y="-582.9" font-family="Times Roman,serif" font-size="14.00">has_cookie?</text>
<text text-anchor="start" x="59" y="-564.9" font-family="Times Roman,serif" font-size="14.00">render_error</text>
<text text-anchor="start" x="59" y="-546.9" font-family="Times Roman,serif" font-size="14.00">render_json</text>
<text text-anchor="start" x="59" y="-528.9" font-family="Times Roman,serif" font-size="14.00">render_json_response</text>
<text text-anchor="start" x="59" y="-510.9" font-family="Times Roman,serif" font-size="14.00">set_cookie</text>
<polyline fill="none" stroke="black" points="51,-501.5 218,-501.5 "/>
<polyline fill="none" stroke="black" points="51,-477.5 218,-477.5 "/>
<text text-anchor="start" x="59" y="-460.9" font-family="Times Roman,serif" font-size="14.00">_layout</text>
</g>
</g>
</svg>
