<?xml version="1.0" encoding="UTF-8" standalone="no"?>
<!DOCTYPE svg PUBLIC "-//W3C//DTD SVG 1.1//EN"
 "http://www.w3.org/Graphics/SVG/1.1/DTD/svg11.dtd">
<!-- Generated by graphviz version 2.26.3 (20100126.1600)
 -->
<!-- Title: models_diagram Pages: 1 -->
<svg width="862pt" height="270pt"
 viewBox="0.00 0.00 862.00 270.00" xmlns="http://www.w3.org/2000/svg" xmlns:xlink="http://www.w3.org/1999/xlink">
<g id="graph1" class="graph" transform="scale(1 1) rotate(0) translate(4 266)">
<title>models_diagram</title>
<polygon fill="white" stroke="white" points="-4,5 -4,-266 859,-266 859,5 -4,5"/>
<!-- _diagram_info -->
<g id="node1" class="node"><title>_diagram_info</title>
<text text-anchor="start" x="8" y="-245.8" font-family="Times Roman,serif" font-size="13.00">Models diagram</text>
<text text-anchor="start" x="8" y="-228.8" font-family="Times Roman,serif" font-size="13.00">Date: Jan 14 2013 &#45; 21:21</text>
<text text-anchor="start" x="8" y="-211.8" font-family="Times Roman,serif" font-size="13.00">Migration version: 20130108133713</text>
<text text-anchor="start" x="8" y="-194.8" font-family="Times Roman,serif" font-size="13.00">Generated by RailRoady 1.1.0</text>
<text text-anchor="start" x="8" y="-177.8" font-family="Times Roman,serif" font-size="13.00">http://railroady.prestonlee.com</text>
</g>
<!-- User -->
<g id="node2" class="node"><title>User</title>
<ellipse fill="none" stroke="black" cx="302" cy="-215" rx="33.9411" ry="18.3848"/>
<text text-anchor="middle" x="302" y="-211.4" font-family="Times Roman,serif" font-size="14.00">User</text>
</g>
<!-- Report -->
<g id="node3" class="node"><title>Report</title>
<ellipse fill="none" stroke="black" cx="410" cy="-111" rx="43.8406" ry="18.3848"/>
<text text-anchor="middle" x="410" y="-107.4" font-family="Times Roman,serif" font-size="14.00">Report</text>
</g>
<!-- Opinion -->
<g id="node5" class="node"><title>Opinion</title>
<ellipse fill="none" stroke="black" cx="356" cy="-19" rx="48.9975" ry="18.3848"/>
<text text-anchor="middle" x="356" y="-15.4" font-family="Times Roman,serif" font-size="14.00">Opinion</text>
</g>
<!-- Report&#45;&gt;Opinion -->
<g id="edge2" class="edge"><title>Report&#45;&gt;Opinion</title>
<path fill="none" stroke="#f64f46" d="M395.107,-85.6264C387.843,-73.2512 379.105,-58.3641 371.733,-45.8039"/>
<ellipse fill="none" stroke="#f64f46" cx="397.307" cy="-89.3741" rx="4.00002" ry="4.00002"/>
<polygon fill="#f64f46" stroke="#f64f46" points="371.709,-45.7627 370.527,-34.8606 369.178,-41.4506 366.646,-37.1385 366.646,-37.1385 366.646,-37.1385 369.178,-41.4506 362.766,-39.4164 371.709,-45.7627 371.709,-45.7627"/>
</g>
<!-- Abuse -->
<g id="node7" class="node"><title>Abuse</title>
<ellipse fill="none" stroke="black" cx="464" cy="-19" rx="41.2167" ry="18.3848"/>
<text text-anchor="middle" x="464" y="-15.4" font-family="Times Roman,serif" font-size="14.00">Abuse</text>
</g>
<!-- Report&#45;&gt;Abuse -->
<g id="edge4" class="edge"><title>Report&#45;&gt;Abuse</title>
<path fill="none" stroke="#7ca1c7" d="M424.893,-85.6264C432.157,-73.2512 440.895,-58.3641 448.267,-45.8039"/>
<ellipse fill="none" stroke="#7ca1c7" cx="422.693" cy="-89.3741" rx="4.00002" ry="4.00002"/>
<polygon fill="#7ca1c7" stroke="#7ca1c7" points="448.291,-45.7627 457.234,-39.4164 450.822,-41.4506 453.354,-37.1385 453.354,-37.1385 453.354,-37.1385 450.822,-41.4506 449.473,-34.8606 448.291,-45.7627 448.291,-45.7627"/>
<text text-anchor="middle" x="465" y="-61.4" font-family="Times Roman,serif" font-size="14.00">abuses</text>
</g>
<!-- Category -->
<g id="node4" class="node"><title>Category</title>
<ellipse fill="none" stroke="black" cx="410" cy="-215" rx="56.0679" ry="18.3848"/>
<text text-anchor="middle" x="410" y="-211.4" font-family="Times Roman,serif" font-size="14.00">Category</text>
</g>
<!-- Category&#45;&gt;Report -->
<g id="edge6" class="edge"><title>Category&#45;&gt;Report</title>
<path fill="none" stroke="#f590b8" d="M410,-187.926C410,-173.224 410,-155.041 410,-140.044"/>
<ellipse fill="none" stroke="#f590b8" cx="410" cy="-192.407" rx="4" ry="4"/>
<polygon fill="#f590b8" stroke="#f590b8" points="410,-139.783 414.5,-129.783 410,-134.783 410,-129.783 410,-129.783 410,-129.783 410,-134.783 405.5,-129.783 410,-139.783 410,-139.783"/>
</g>
<!-- UserSession -->
<g id="node6" class="node"><title>UserSession</title>
<polygon fill="none" stroke="black" points="664,-129 564,-129 564,-93 664,-93 664,-129"/>
<text text-anchor="middle" x="614" y="-107.4" font-family="Times Roman,serif" font-size="14.00">UserSession</text>
</g>
<!-- MapBorder -->
<g id="node8" class="node"><title>MapBorder</title>
<polygon fill="none" stroke="black" points="854,-233 762,-233 762,-197 854,-197 854,-233"/>
<text text-anchor="middle" x="808" y="-211.4" font-family="Times Roman,serif" font-size="14.00">MapBorder</text>
</g>
<!-- Authlogic::Session::Base -->
<g id="node12" class="node"><title>Authlogic::Session::Base</title>
<ellipse fill="none" stroke="black" cx="614" cy="-215" rx="130.108" ry="18.3848"/>
<text text-anchor="middle" x="614" y="-211.4" font-family="Times Roman,serif" font-size="14.00">Authlogic::Session::Base</text>
</g>
<!-- Authlogic::Session::Base&#45;&gt;UserSession -->
<g id="edge8" class="edge"><title>Authlogic::Session::Base&#45;&gt;UserSession</title>
<path fill="none" stroke="black" d="M614,-196.407C614,-177.36 614,-147.943 614,-129.084"/>
</g>
</g>
</svg>
