<?xml version="1.0" encoding="UTF-8" standalone="no"?>
<!DOCTYPE svg PUBLIC "-//W3C//DTD SVG 1.1//EN"
 "http://www.w3.org/Graphics/SVG/1.1/DTD/svg11.dtd">
<!-- Generated by graphviz version 2.26.3 (20100126.1600)
 -->
<!-- Title: models_diagram Pages: 1 -->
<svg width="1070pt" height="766pt"
 viewBox="0.00 0.00 1070.00 766.00" xmlns="http://www.w3.org/2000/svg" xmlns:xlink="http://www.w3.org/1999/xlink">
<g id="graph1" class="graph" transform="scale(1 1) rotate(0) translate(4 762)">
<title>models_diagram</title>
<polygon fill="white" stroke="white" points="-4,5 -4,-762 1067,-762 1067,5 -4,5"/>
<!-- _diagram_info -->
<g id="node1" class="node"><title>_diagram_info</title>
<text text-anchor="start" x="8" y="-662.8" font-family="Times Roman,serif" font-size="13.00">Models diagram</text>
<text text-anchor="start" x="8" y="-645.8" font-family="Times Roman,serif" font-size="13.00">Date: Jan 14 2013 &#45; 21:20</text>
<text text-anchor="start" x="8" y="-628.8" font-family="Times Roman,serif" font-size="13.00">Migration version: 20130108133713</text>
<text text-anchor="start" x="8" y="-611.8" font-family="Times Roman,serif" font-size="13.00">Generated by RailRoady 1.1.0</text>
<text text-anchor="start" x="8" y="-594.8" font-family="Times Roman,serif" font-size="13.00">http://railroady.prestonlee.com</text>
</g>
<!-- User -->
<g id="node2" class="node"><title>User</title>
<polyline fill="none" stroke="black" points="280,-507 480,-507 "/>
<path fill="none" stroke="black" d="M480,-507C486,-507 492,-513 492,-519"/>
<polyline fill="none" stroke="black" points="492,-519 492,-745 "/>
<path fill="none" stroke="black" d="M492,-745C492,-751 486,-757 480,-757"/>
<polyline fill="none" stroke="black" points="480,-757 280,-757 "/>
<path fill="none" stroke="black" d="M280,-757C274,-757 268,-751 268,-745"/>
<polyline fill="none" stroke="black" points="268,-745 268,-519 "/>
<path fill="none" stroke="black" d="M268,-519C268,-513 274,-507 280,-507"/>
<text text-anchor="middle" x="380" y="-740.4" font-family="Times Roman,serif" font-size="14.00">User</text>
<polyline fill="none" stroke="black" points="268,-731 492,-731 "/>
<text text-anchor="start" x="276" y="-714.4" font-family="Times Roman,serif" font-size="14.00">id :integer</text>
<text text-anchor="start" x="276" y="-696.4" font-family="Times Roman,serif" font-size="14.00">created_at :datetime</text>
<text text-anchor="start" x="276" y="-678.4" font-family="Times Roman,serif" font-size="14.00">updated_at :datetime</text>
<text text-anchor="start" x="276" y="-660.4" font-family="Times Roman,serif" font-size="14.00">name :string</text>
<text text-anchor="start" x="276" y="-642.4" font-family="Times Roman,serif" font-size="14.00">login :string</text>
<text text-anchor="start" x="276" y="-624.4" font-family="Times Roman,serif" font-size="14.00">password :string</text>
<text text-anchor="start" x="276" y="-606.4" font-family="Times Roman,serif" font-size="14.00">password_confirmation :string</text>
<text text-anchor="start" x="276" y="-588.4" font-family="Times Roman,serif" font-size="14.00">crypted_password :string</text>
<text text-anchor="start" x="276" y="-570.4" font-family="Times Roman,serif" font-size="14.00">email :string</text>
<text text-anchor="start" x="276" y="-552.4" font-family="Times Roman,serif" font-size="14.00">date_of_birth :date</text>
<text text-anchor="start" x="276" y="-534.4" font-family="Times Roman,serif" font-size="14.00">salt :string</text>
<text text-anchor="start" x="276" y="-516.4" font-family="Times Roman,serif" font-size="14.00">persistence_token :string</text>
</g>
<!-- Report -->
<g id="node3" class="node"><title>Report</title>
<polyline fill="none" stroke="black" points="521.5,-235 662.5,-235 "/>
<path fill="none" stroke="black" d="M662.5,-235C668.5,-235 674.5,-241 674.5,-247"/>
<polyline fill="none" stroke="black" points="674.5,-247 674.5,-455 "/>
<path fill="none" stroke="black" d="M674.5,-455C674.5,-461 668.5,-467 662.5,-467"/>
<polyline fill="none" stroke="black" points="662.5,-467 521.5,-467 "/>
<path fill="none" stroke="black" d="M521.5,-467C515.5,-467 509.5,-461 509.5,-455"/>
<polyline fill="none" stroke="black" points="509.5,-455 509.5,-247 "/>
<path fill="none" stroke="black" d="M509.5,-247C509.5,-241 515.5,-235 521.5,-235"/>
<text text-anchor="middle" x="592" y="-450.4" font-family="Times Roman,serif" font-size="14.00">Report</text>
<polyline fill="none" stroke="black" points="509.5,-441 674.5,-441 "/>
<text text-anchor="start" x="517.5" y="-424.4" font-family="Times Roman,serif" font-size="14.00">id :integer</text>
<text text-anchor="start" x="517.5" y="-406.4" font-family="Times Roman,serif" font-size="14.00">title :string</text>
<text text-anchor="start" x="517.5" y="-388.4" font-family="Times Roman,serif" font-size="14.00">description :string</text>
<text text-anchor="start" x="517.5" y="-370.4" font-family="Times Roman,serif" font-size="14.00">photo :string</text>
<text text-anchor="start" x="517.5" y="-352.4" font-family="Times Roman,serif" font-size="14.00">positives :integer</text>
<text text-anchor="start" x="517.5" y="-334.4" font-family="Times Roman,serif" font-size="14.00">negatives :integer</text>
<text text-anchor="start" x="517.5" y="-316.4" font-family="Times Roman,serif" font-size="14.00">created_at :datetime</text>
<text text-anchor="start" x="517.5" y="-298.4" font-family="Times Roman,serif" font-size="14.00">updated_at :datetime</text>
<text text-anchor="start" x="517.5" y="-280.4" font-family="Times Roman,serif" font-size="14.00">category_id :integer</text>
<text text-anchor="start" x="517.5" y="-262.4" font-family="Times Roman,serif" font-size="14.00">latitude :decimal</text>
<text text-anchor="start" x="517.5" y="-244.4" font-family="Times Roman,serif" font-size="14.00">longitude :decimal</text>
</g>
<!-- Opinion -->
<g id="node5" class="node"><title>Opinion</title>
<polyline fill="none" stroke="black" points="430.5,-1 571.5,-1 "/>
<path fill="none" stroke="black" d="M571.5,-1C577.5,-1 583.5,-7 583.5,-13"/>
<polyline fill="none" stroke="black" points="583.5,-13 583.5,-167 "/>
<path fill="none" stroke="black" d="M583.5,-167C583.5,-173 577.5,-179 571.5,-179"/>
<polyline fill="none" stroke="black" points="571.5,-179 430.5,-179 "/>
<path fill="none" stroke="black" d="M430.5,-179C424.5,-179 418.5,-173 418.5,-167"/>
<polyline fill="none" stroke="black" points="418.5,-167 418.5,-13 "/>
<path fill="none" stroke="black" d="M418.5,-13C418.5,-7 424.5,-1 430.5,-1"/>
<text text-anchor="middle" x="501" y="-162.4" font-family="Times Roman,serif" font-size="14.00">Opinion</text>
<polyline fill="none" stroke="black" points="418.5,-153 583.5,-153 "/>
<text text-anchor="start" x="426.5" y="-136.4" font-family="Times Roman,serif" font-size="14.00">id :integer</text>
<text text-anchor="start" x="426.5" y="-118.4" font-family="Times Roman,serif" font-size="14.00">title :string</text>
<text text-anchor="start" x="426.5" y="-100.4" font-family="Times Roman,serif" font-size="14.00">description :string</text>
<text text-anchor="start" x="426.5" y="-82.4" font-family="Times Roman,serif" font-size="14.00">positives :integer</text>
<text text-anchor="start" x="426.5" y="-64.4" font-family="Times Roman,serif" font-size="14.00">negatives :integer</text>
<text text-anchor="start" x="426.5" y="-46.4" font-family="Times Roman,serif" font-size="14.00">created_at :datetime</text>
<text text-anchor="start" x="426.5" y="-28.4" font-family="Times Roman,serif" font-size="14.00">updated_at :datetime</text>
<text text-anchor="start" x="426.5" y="-10.4" font-family="Times Roman,serif" font-size="14.00">report_id :integer</text>
</g>
<!-- Report&#45;&gt;Opinion -->
<g id="edge2" class="edge"><title>Report&#45;&gt;Opinion</title>
<path fill="none" stroke="#969f3c" d="M548.678,-226.746C544.212,-213.938 539.719,-201.051 535.37,-188.577"/>
<ellipse fill="none" stroke="#969f3c" cx="550.107" cy="-230.844" rx="4.00001" ry="4.00001"/>
<polygon fill="#969f3c" stroke="#969f3c" points="535.367,-188.57 536.324,-177.646 533.721,-183.849 532.075,-179.128 532.075,-179.128 532.075,-179.128 533.721,-183.849 527.826,-180.609 535.367,-188.57 535.367,-188.57"/>
</g>
<!-- Abuse -->
<g id="node7" class="node"><title>Abuse</title>
<polyline fill="none" stroke="black" points="612.5,-28 753.5,-28 "/>
<path fill="none" stroke="black" d="M753.5,-28C759.5,-28 765.5,-34 765.5,-40"/>
<polyline fill="none" stroke="black" points="765.5,-40 765.5,-140 "/>
<path fill="none" stroke="black" d="M765.5,-140C765.5,-146 759.5,-152 753.5,-152"/>
<polyline fill="none" stroke="black" points="753.5,-152 612.5,-152 "/>
<path fill="none" stroke="black" d="M612.5,-152C606.5,-152 600.5,-146 600.5,-140"/>
<polyline fill="none" stroke="black" points="600.5,-140 600.5,-40 "/>
<path fill="none" stroke="black" d="M600.5,-40C600.5,-34 606.5,-28 612.5,-28"/>
<text text-anchor="middle" x="683" y="-135.4" font-family="Times Roman,serif" font-size="14.00">Abuse</text>
<polyline fill="none" stroke="black" points="600.5,-126 765.5,-126 "/>
<text text-anchor="start" x="608.5" y="-109.4" font-family="Times Roman,serif" font-size="14.00">id :integer</text>
<text text-anchor="start" x="608.5" y="-91.4" font-family="Times Roman,serif" font-size="14.00">created_at :datetime</text>
<text text-anchor="start" x="608.5" y="-73.4" font-family="Times Roman,serif" font-size="14.00">updated_at :datetime</text>
<text text-anchor="start" x="608.5" y="-55.4" font-family="Times Roman,serif" font-size="14.00">name :string</text>
<text text-anchor="start" x="608.5" y="-37.4" font-family="Times Roman,serif" font-size="14.00">report_id :integer</text>
</g>
<!-- Report&#45;&gt;Abuse -->
<g id="edge4" class="edge"><title>Report&#45;&gt;Abuse</title>
<path fill="none" stroke="#7be0b4" d="M635.253,-226.946C643.033,-204.631 650.901,-182.065 657.944,-161.865"/>
<ellipse fill="none" stroke="#7be0b4" cx="633.893" cy="-230.844" rx="4.00001" ry="4.00001"/>
<polygon fill="#7be0b4" stroke="#7be0b4" points="658.039,-161.593 665.58,-153.632 659.685,-156.871 661.331,-152.15 661.331,-152.15 661.331,-152.15 659.685,-156.871 657.082,-150.669 658.039,-161.593 658.039,-161.593"/>
<text text-anchor="middle" x="666" y="-203.4" font-family="Times Roman,serif" font-size="14.00">abuses</text>
</g>
<!-- Category -->
<g id="node4" class="node"><title>Category</title>
<polyline fill="none" stroke="black" points="521.5,-552 662.5,-552 "/>
<path fill="none" stroke="black" d="M662.5,-552C668.5,-552 674.5,-558 674.5,-564"/>
<polyline fill="none" stroke="black" points="674.5,-564 674.5,-700 "/>
<path fill="none" stroke="black" d="M674.5,-700C674.5,-706 668.5,-712 662.5,-712"/>
<polyline fill="none" stroke="black" points="662.5,-712 521.5,-712 "/>
<path fill="none" stroke="black" d="M521.5,-712C515.5,-712 509.5,-706 509.5,-700"/>
<polyline fill="none" stroke="black" points="509.5,-700 509.5,-564 "/>
<path fill="none" stroke="black" d="M509.5,-564C509.5,-558 515.5,-552 521.5,-552"/>
<text text-anchor="middle" x="592" y="-695.4" font-family="Times Roman,serif" font-size="14.00">Category</text>
<polyline fill="none" stroke="black" points="509.5,-686 674.5,-686 "/>
<text text-anchor="start" x="517.5" y="-669.4" font-family="Times Roman,serif" font-size="14.00">id :integer</text>
<text text-anchor="start" x="517.5" y="-651.4" font-family="Times Roman,serif" font-size="14.00">created_at :datetime</text>
<text text-anchor="start" x="517.5" y="-633.4" font-family="Times Roman,serif" font-size="14.00">updated_at :datetime</text>
<text text-anchor="start" x="517.5" y="-615.4" font-family="Times Roman,serif" font-size="14.00">title :string</text>
<text text-anchor="start" x="517.5" y="-597.4" font-family="Times Roman,serif" font-size="14.00">description :string</text>
<text text-anchor="start" x="517.5" y="-579.4" font-family="Times Roman,serif" font-size="14.00">image :string</text>
<text text-anchor="start" x="517.5" y="-561.4" font-family="Times Roman,serif" font-size="14.00">unique_id :string</text>
</g>
<!-- Category&#45;&gt;Report -->
<g id="edge6" class="edge"><title>Category&#45;&gt;Report</title>
<path fill="none" stroke="#d9a91e" d="M592,-543.718C592,-522.665 592,-499.789 592,-477.396"/>
<ellipse fill="none" stroke="#d9a91e" cx="592" cy="-547.853" rx="4" ry="4"/>
<polygon fill="#d9a91e" stroke="#d9a91e" points="592,-477.149 596.5,-467.149 592,-472.149 592,-467.149 592,-467.149 592,-467.149 592,-472.149 587.5,-467.149 592,-477.149 592,-477.149"/>
</g>
<!-- UserSession -->
<g id="node6" class="node"><title>UserSession</title>
<polygon fill="none" stroke="black" points="772,-325 772,-377 872,-377 872,-325 772,-325"/>
<text text-anchor="middle" x="822" y="-360.4" font-family="Times Roman,serif" font-size="14.00">UserSession</text>
<polyline fill="none" stroke="black" points="772,-351 872,-351 "/>
<text text-anchor="middle" x="822" y="-334.4" font-family="Times Roman,serif" font-size="14.00"> </text>
</g>
<!-- MapBorder -->
<g id="node8" class="node"><title>MapBorder</title>
<polygon fill="none" stroke="black" points="970,-606 970,-658 1062,-658 1062,-606 970,-606"/>
<text text-anchor="middle" x="1016" y="-641.4" font-family="Times Roman,serif" font-size="14.00">MapBorder</text>
<polyline fill="none" stroke="black" points="970,-632 1062,-632 "/>
<text text-anchor="middle" x="1016" y="-615.4" font-family="Times Roman,serif" font-size="14.00"> </text>
</g>
<!-- Authlogic::Session::Base -->
<g id="node12" class="node"><title>Authlogic::Session::Base</title>
<ellipse fill="none" stroke="black" cx="822" cy="-632" rx="130.108" ry="18.3848"/>
<text text-anchor="middle" x="822" y="-628.4" font-family="Times Roman,serif" font-size="14.00">Authlogic::Session::Base</text>
</g>
<!-- Authlogic::Session::Base&#45;&gt;UserSession -->
<g id="edge8" class="edge"><title>Authlogic::Session::Base&#45;&gt;UserSession</title>
<path fill="none" stroke="black" d="M822,-613.126C822,-564.274 822,-433.583 822,-377.338"/>
</g>
</g>
</svg>
